<svg xmlns="http://www.w3.org/2000/svg" version="1.1" xmlns:xlink="http://www.w3.org/1999/xlink" xmlns:svgjs="http://svgjs.dev/svgjs" width="2000" height="1999" viewBox="0 0 2000 1999"><g transform="matrix(1,0,0,1,-0.431486880466764,-0.4312711370263287)"><svg viewBox="0 0 343 343" data-background-color="#fafafa" preserveAspectRatio="xMidYMid meet" height="1999" width="2000" xmlns="http://www.w3.org/2000/svg" xmlns:xlink="http://www.w3.org/1999/xlink"><g id="tight-bounds" transform="matrix(1,0,0,1,0.0740000000000407,0.07400000000001228)"><svg viewBox="0 0 342.85155851775386 342.85155851775386" height="342.85155851775386" width="342.85155851775386"><g><svg></svg></g><g><svg viewBox="0 0 342.85155851775386 342.85155851775386" height="342.85155851775386" width="342.85155851775386"><g><path d="M0 171.426c0-94.676 76.75-171.426 171.426-171.426 94.676 0 171.426 76.75 171.426 171.426 0 94.676-76.75 171.426-171.426 171.426-94.676 0-171.426-76.75-171.426-171.426zM171.426 338.427c92.232 0 167.001-74.769 167.001-167.001 0-92.232-74.769-167.001-167.001-167.001-92.232 0-167.001 74.769-167.001 167.001 0 92.232 74.769 167.001 167.001 167.001z" data-fill-palette-color="tertiary" fill="#000000" stroke="transparent"></path><ellipse rx="164.56874808852186" ry="164.56874808852186" cx="171.42577925887693" cy="171.42577925887693" fill="#000000" stroke="transparent" stroke-width="0" fill-opacity="1" data-fill-palette-color="tertiary"></ellipse></g><g transform="matrix(1,0,0,1,64.84655864529837,107.19565671240889)"><svg viewBox="0 0 213.1584412271571 128.46024509293608" height="128.46024509293608" width="213.1584412271571"><g><svg viewBox="0 0 213.1584412271571 128.46024509293608" height="128.46024509293608" width="213.1584412271571"><g><svg viewBox="0 0 213.1584412271571 128.46024509293608" height="128.46024509293608" width="213.1584412271571"><g transform="matrix(1,0,0,1,0,79.39358503687352)"><svg viewBox="0 0 213.1584412271571 49.066660056062574" height="49.066660056062574" width="213.1584412271571"><g id="textblocktransform"><svg viewBox="0 0 213.1584412271571 49.066660056062574" height="49.066660056062574" width="213.1584412271571" id="textblock"><g><svg viewBox="0 0 213.1584412271571 49.066660056062574" height="49.066660056062574" width="213.1584412271571"><g transform="matrix(1,0,0,1,0,0)"><svg width="213.1584412271571" viewBox="4.45 -32.9 145.74 33.55" height="49.066660056062574" data-palette-color="#fafafa"><path d="M4.45-2.2L4.45-17.75 8.55-17.75 8.55-0.4 6.65 0Q5.7 0 5.08-0.63 4.45-1.25 4.45-2.2L4.45-2.2ZM21.8 0L6.65 0 6.65-3.5 22.9-3.5Q23.15-3.3 23.3-2.85 23.45-2.4 23.45-1.85L23.45-1.85Q23.45-1 23-0.5 22.55 0 21.8 0L21.8 0ZM8.55-28.8L8.55-14.75 4.45-14.75 4.45-30.3Q4.7-30.4 5.23-30.53 5.75-30.65 6.35-30.65L6.35-30.65Q7.45-30.65 8-30.23 8.55-29.8 8.55-28.8L8.55-28.8ZM28.45-30.4L28.45-30.4Q28.45-31.45 29.2-32.18 29.95-32.9 31.05-32.9L31.05-32.9Q32.2-32.9 32.9-32.18 33.6-31.45 33.6-30.4L33.6-30.4Q33.6-29.35 32.9-28.63 32.2-27.9 31.05-27.9L31.05-27.9Q29.95-27.9 29.2-28.63 28.45-29.35 28.45-30.4ZM29.05-1.55L29.05-13.2 33.05-13.2 33.05-0.1Q32.8 0 32.3 0.13 31.8 0.25 31.2 0.25L31.2 0.25Q30.15 0.25 29.6-0.18 29.05-0.6 29.05-1.55L29.05-1.55ZM33.05-21.5L33.05-11.25 29.05-11.25 29.05-23Q29.3-23.1 29.82-23.23 30.35-23.35 30.95-23.35L30.95-23.35Q32-23.35 32.52-22.93 33.05-22.5 33.05-21.5L33.05-21.5ZM60.84-15.25L60.84-15.25 60.84-10.15 56.84-10.15 56.84-15.05Q56.84-17.85 55.27-19.15 53.7-20.45 51.05-20.45L51.05-20.45Q49.05-20.45 47.49-19.95 45.95-19.45 44.84-18.8L44.84-18.8 44.84-10.15 40.84-10.15 40.84-18.6Q40.84-19.65 41.27-20.33 41.7-21 42.74-21.65L42.74-21.65Q44.05-22.4 46.2-23.08 48.34-23.75 51.05-23.75L51.05-23.75Q55.59-23.75 58.22-21.68 60.84-19.6 60.84-15.25ZM40.84-1.55L40.84-12.9 44.84-12.9 44.84-0.1Q44.59 0 44.09 0.13 43.59 0.25 42.99 0.25L42.99 0.25Q41.95 0.25 41.39-0.18 40.84-0.6 40.84-1.55L40.84-1.55ZM56.84-1.55L56.84-12.9 60.84-12.9 60.84-0.1Q60.59 0 60.07 0.13 59.55 0.25 59 0.25L59 0.25Q57.89 0.25 57.37-0.18 56.84-0.6 56.84-1.55L56.84-1.55ZM84.29-19.15L74.49-10.55 71.99-12.5 83.39-23.55Q84.59-23.5 85.27-22.98 85.94-22.45 85.94-21.6L85.94-21.6Q85.94-20.9 85.52-20.35 85.09-19.8 84.29-19.15L84.29-19.15ZM82.54-1.15L71.89-11.85 74.69-13.5 87.39-2.1Q87.29-1 86.72-0.35 86.14 0.3 85.19 0.3L85.19 0.3Q84.44 0.3 83.82-0.1 83.19-0.5 82.54-1.15L82.54-1.15ZM68.44-1.55L68.44-13.4 72.44-12.8 72.44-0.1Q72.19 0 71.69 0.13 71.19 0.25 70.59 0.25L70.59 0.25Q69.54 0.25 68.99-0.18 68.44-0.6 68.44-1.55L68.44-1.55ZM72.44-30.95L72.44-10.85 68.44-11.45 68.44-32.4Q68.69-32.5 69.22-32.63 69.74-32.75 70.34-32.75L70.34-32.75Q71.39-32.75 71.92-32.33 72.44-31.9 72.44-30.95L72.44-30.95ZM111.39-1.35L102.34-14.45 101.64-14.75 91.39-28.7Q91.64-29.55 92.24-30.13 92.84-30.7 93.79-30.7L93.79-30.7Q94.59-30.7 95.14-30.23 95.69-29.75 96.29-28.9L96.29-28.9 104.49-17.15 105.64-16.15 116.14-1.6Q115.94-0.75 115.36-0.2 114.79 0.35 113.84 0.35L113.84 0.35Q113.04 0.35 112.52-0.05 111.99-0.45 111.39-1.35L111.39-1.35ZM105.74-15.05L105.74-15.05 104.64-14.05 94.39 0.25Q94.19 0.3 93.91 0.33 93.64 0.35 93.39 0.35L93.39 0.35Q92.39 0.35 91.79-0.15 91.19-0.65 91.19-1.45L91.19-1.45Q91.19-2.1 91.52-2.68 91.84-3.25 92.34-3.9L92.34-3.9 101.69-16.15 103.04-17.4 112.54-30.55Q112.79-30.6 113.04-30.63 113.29-30.65 113.59-30.65L113.59-30.65Q114.64-30.65 115.16-30.15 115.69-29.65 115.69-28.9L115.69-28.9Q115.69-28.4 115.41-27.85 115.14-27.3 114.74-26.75L114.74-26.75Q112.59-23.85 110.34-20.93 108.09-18 105.74-15.05ZM150.19-15.2L150.19-15.2Q150.19-10 148.29-6.48 146.39-2.95 143.11-1.15 139.84 0.65 135.69 0.65L135.69 0.65Q131.59 0.65 128.29-1.15 124.99-2.95 123.09-6.48 121.19-10 121.19-15.2L121.19-15.2Q121.19-20.4 123.14-23.93 125.09-27.45 128.36-29.25 131.64-31.05 135.69-31.05L135.69-31.05Q139.79-31.05 143.06-29.25 146.34-27.45 148.26-23.93 150.19-20.4 150.19-15.2ZM146.04-15.2L146.04-15.2Q146.04-21.15 143.21-24.38 140.39-27.6 135.69-27.6L135.69-27.6Q131.04-27.6 128.21-24.38 125.39-21.15 125.39-15.2L125.39-15.2Q125.39-9.25 128.19-6.03 130.99-2.8 135.69-2.8L135.69-2.8Q140.44-2.8 143.24-6.03 146.04-9.25 146.04-15.2Z" opacity="1" transform="matrix(1,0,0,1,0,0)" fill="#ffffff" class="wordmark-text-0" data-fill-palette-color="quaternary" id="text-0"></path></svg></g></svg></g></svg></g></svg></g><g transform="matrix(1,0,0,1,72.67415851483932,0)"><svg viewBox="0 0 67.81012419747849 67.81012419747849" height="67.81012419747849" width="67.81012419747849"><g><svg xmlns="http://www.w3.org/2000/svg" xmlns:xlink="http://www.w3.org/1999/xlink" version="1.1" x="0" y="0" viewBox="0 0 512 512" enable-background="new 0 0 512 512" xml:space="preserve" height="67.81012419747849" width="67.81012419747849" class="icon-icon-0" data-fill-palette-color="quaternary" id="icon-0"><path d="M448 32C465.656 32 480 46.375 480 64V352C480 369.656 465.656 384 448 384H64C46.359 384 32 369.656 32 352V64C32 46.375 46.359 32 64 32zM448 0H64C28.656 0 0 28.656 0 64V448C0 483.344 28.656 512 64 512H448C483.344 512 512 483.344 512 448V64C512 28.656 483.344 0 448 0M448 352L320.219 128 192.406 352zM198.797 276.188L159.875 224 64.406 352H155.562zM128 96C110.328 96 96 110.313 96 128S110.328 160 128 160 160 145.687 160 128 145.672 96 128 96" fill="#ffffff" data-fill-palette-color="quaternary"></path></svg></g></svg></g><g></g></svg></g></svg></g></svg></g></svg></g><defs></defs></svg><rect width="342.85155851775386" height="342.85155851775386" fill="none" stroke="none" visibility="hidden"></rect></g></svg></g></svg>