<svg xmlns="http://www.w3.org/2000/svg" version="1.1" xmlns:xlink="http://www.w3.org/1999/xlink" xmlns:svgjs="http://svgjs.dev/svgjs" width="2000" height="333" viewBox="0 0 2000 333"><g transform="matrix(1,0,0,1,-1.2121212121212466,-1.1339182601016944)"><svg viewBox="0 0 396 66" data-background-color="#ebe3d6" preserveAspectRatio="xMidYMid meet" height="333" width="2000" xmlns="http://www.w3.org/2000/svg" xmlns:xlink="http://www.w3.org/1999/xlink"><g id="tight-bounds" transform="matrix(1,0,0,1,0.2400000000000091,0.22474055605619014)"><svg viewBox="0 0 395.52 65.55051888788763" height="65.55051888788763" width="395.52"><g><svg viewBox="0 0 561.5786562582373 93.07183534104506" height="65.55051888788763" width="395.52"><g><rect width="8.35155637929305" height="93.07183534104506" x="135.84438684414567" y="0" fill="#ffffff" opacity="1" stroke-width="0" stroke="transparent" fill-opacity="1" class="rect-yte-0" data-fill-palette-color="primary" rx="1%" id="yte-0" data-palette-color="#fffefe"></rect></g><g transform="matrix(1,0,0,1,166.05865625823728,0.2315219784603073)"><svg viewBox="0 0 395.52 92.60879138412444" height="92.60879138412444" width="395.52"><g id="textblocktransform"><svg viewBox="0 0 395.52 92.60879138412444" height="92.60879138412444" width="395.52" id="textblock"><g><svg viewBox="0 0 395.52 92.60879138412444" height="92.60879138412444" width="395.52"><g transform="matrix(1,0,0,1,0,0)"><svg width="395.52" viewBox="3.4 -28.65 125.34 29.349999999999998" height="92.60879138412444" data-palette-color="#fffefe"><path d="M5.65-0.6L3.4-0.6 3.4-28.15 5.65-28.15 5.65-0.6ZM22.15 0L3.4 0 3.4-2 22.15-2 22.15 0ZM28.25 0L25.95 0 25.95-20.3 28.25-20.3 28.25 0ZM27.15-23.55L27.15-23.55Q26.15-23.55 25.77-24.08 25.4-24.6 25.4-25.3L25.4-25.3Q25.4-26 25.77-26.5 26.15-27 27.15-27L27.15-27Q28.2-27 28.52-26.5 28.85-26 28.85-25.3L28.85-25.3Q28.85-24.6 28.52-24.08 28.2-23.55 27.15-23.55ZM35.19 0L32.89 0 32.89-20.3 34.79-20.3 35.19-14.9 35.29-14.9Q35.39-15.25 35.79-16.1 36.19-16.95 37.04-17.93 37.89-18.9 39.29-19.6 40.69-20.3 42.8-20.3L42.8-20.3Q44.89-20.3 46.27-19.7 47.64-19.1 48.52-18.07 49.39-17.05 49.84-15.73 50.3-14.4 50.44-12.95 50.59-11.5 50.59-10.05L50.59-10.05 50.59 0 48.34 0 48.34-10.05Q48.34-12.55 47.8-14.38 47.24-16.2 45.94-17.2 44.64-18.2 42.34-18.2L42.34-18.2Q39.89-18.2 38.32-17 36.74-15.8 35.97-13.85 35.19-11.9 35.19-9.6L35.19-9.6 35.19 0ZM57.64-28.15L57.64 0.05 55.34 0.05 55.34-28.15 57.64-28.15ZM61.54-10.6L63.19-12.15 73.09 0.05 70.24 0.05 61.54-10.6ZM72.94-20.3L57.29-5.2 57.29-8.05 69.89-20.3 72.94-20.3ZM77.74 0L75.09 0 85.59-14.95 76.14-28.15 78.99-28.15 86.99-16.55 95.04-28.15 97.84-28.15 88.49-14.95 99.04 0 96.24 0 86.99-13.35 77.74 0ZM115.29 0.7L115.29 0.7Q108.69 0.7 105.24-3.28 101.79-7.25 101.79-14L101.79-14Q101.79-18.45 103.29-21.73 104.79-25 107.79-26.83 110.79-28.65 115.29-28.65L115.29-28.65Q121.89-28.65 125.31-24.68 128.74-20.7 128.74-14L128.74-14Q128.74-9.65 127.21-6.33 125.69-3 122.71-1.15 119.74 0.7 115.29 0.7ZM115.29-1.45L115.29-1.45Q119.04-1.45 121.51-3.03 123.99-4.6 125.26-7.43 126.54-10.25 126.54-14L126.54-14Q126.54-17.8 125.31-20.6 124.09-23.4 121.56-24.95 119.04-26.5 115.29-26.5L115.29-26.5Q109.74-26.5 106.89-23.2 104.04-19.9 104.04-14L104.04-14Q104.04-10.3 105.24-7.48 106.44-4.65 108.96-3.05 111.49-1.45 115.29-1.45Z" opacity="1" transform="matrix(1,0,0,1,0,0)" fill="#ffffff" class="wordmark-text-0" data-fill-palette-color="primary" id="text-0"></path></svg></g></svg></g></svg></g></svg></g><g transform="matrix(1,0,0,1,0,0.2315219784603073)"><svg viewBox="0 0 113.9816738093471 92.60879138412444" height="92.60879138412444" width="113.9816738093471"><g><svg xmlns="http://www.w3.org/2000/svg" xmlns:xlink="http://www.w3.org/1999/xlink" version="1.1" x="0" y="0" viewBox="4 12.377 91.845 74.623" enable-background="new 0 0 100 100" xml:space="preserve" height="92.60879138412444" width="113.9816738093471" class="icon-icon-0" data-fill-palette-color="accent" id="icon-0"><g fill="#ffffff" data-fill-palette-color="accent"><path fill="#ffffff" d="M52.921 51.022A5.524 5.524 0 0 1 47.398 56.553 5.527 5.527 0 0 1 41.87 51.022 5.523 5.523 0 0 1 47.398 45.501 5.52 5.52 0 0 1 52.921 51.022" data-fill-palette-color="accent"></path><path fill="#ffffff" d="M34.766 73.678H82.631V59.164L76.3 47.675 67.697 66.256 62.626 58.45S55.528 65.083 48.054 70.296L42.366 67.679z" data-fill-palette-color="accent"></path><path fill="#ffffff" d="M84.362 29.596V12.377H4V64.036H21.221V87H95.845V29.596zM21.221 55.179H12.863V21.239H75.5V29.596H21.221zM86.98 78.137H30.083V38.459H86.98z" data-fill-palette-color="accent"></path></g></svg></g></svg></g></svg></g><defs></defs></svg><rect width="395.52" height="65.55051888788763" fill="none" stroke="none" visibility="hidden"></rect></g></svg></g></svg>